<svg width="17" height="17" viewBox="0 0 17 17" fill="none" xmlns="http://www.w3.org/2000/svg">
<path d="M15.5622 12.9837C15.5622 13.2387 15.5055 13.5008 15.3851 13.7558C15.2647 14.0108 15.1088 14.2516 14.9034 14.4783C14.5563 14.8608 14.1738 15.137 13.7417 15.3141C13.3167 15.4912 12.8563 15.5833 12.3605 15.5833C11.638 15.5833 10.8659 15.4133 10.0513 15.0662C9.23675 14.7191 8.42216 14.2516 7.61466 13.6637C6.80008 13.0687 6.028 12.41 5.29133 11.6804C4.56175 10.9437 3.903 10.1716 3.31508 9.36413C2.73425 8.55663 2.26675 7.74913 1.92675 6.94871C1.58675 6.14121 1.41675 5.36913 1.41675 4.63246C1.41675 4.15079 1.50175 3.69038 1.67175 3.26538C1.84175 2.83329 2.11091 2.43663 2.48633 2.08246C2.93966 1.63621 3.4355 1.41663 3.95966 1.41663C4.158 1.41663 4.35633 1.45913 4.53341 1.54413C4.71758 1.62913 4.8805 1.75663 5.008 1.94079L6.65133 4.25704C6.77883 4.43413 6.87091 4.59704 6.93466 4.75288C6.99841 4.90163 7.03383 5.05038 7.03383 5.18496C7.03383 5.35496 6.98425 5.52496 6.88508 5.68788C6.793 5.85079 6.65841 6.02079 6.48841 6.19079L5.95008 6.75038C5.87216 6.82829 5.83675 6.92038 5.83675 7.03371C5.83675 7.09038 5.84383 7.13996 5.858 7.19663C5.87925 7.25329 5.9005 7.29579 5.91466 7.33829C6.04216 7.57204 6.26175 7.87663 6.57341 8.24496C6.89216 8.61329 7.23216 8.98871 7.6005 9.36413C7.983 9.73954 8.35133 10.0866 8.72675 10.4054C9.09508 10.717 9.39966 10.9295 9.6405 11.057C9.67591 11.0712 9.71841 11.0925 9.768 11.1137C9.82466 11.135 9.88133 11.142 9.94508 11.142C10.0655 11.142 10.1576 11.0995 10.2355 11.0216L10.7738 10.4904C10.9509 10.3133 11.1209 10.1787 11.2838 10.0937C11.4467 9.99454 11.6097 9.94496 11.7867 9.94496C11.9213 9.94496 12.063 9.97329 12.2188 10.037C12.3747 10.1008 12.5376 10.1929 12.7147 10.3133L15.0592 11.9779C15.2434 12.1054 15.3709 12.2541 15.4488 12.4312C15.5197 12.6083 15.5622 12.7854 15.5622 12.9837Z" stroke="#626E94" stroke-width="1.5" stroke-miterlimit="10"/>
<path d="M13.1042 6.37492C13.1042 5.94992 12.7713 5.29825 12.2754 4.767C11.8221 4.27825 11.22 3.89575 10.625 3.89575" stroke="#00ADB5" stroke-width="1.5" stroke-linecap="round" stroke-linejoin="round"/>
<path d="M15.5833 6.37496C15.5833 3.63371 13.3662 1.41663 10.625 1.41663" stroke="#00ADB5" stroke-width="1.5" stroke-linecap="round" stroke-linejoin="round"/>
</svg>
