<svg width="93" height="25" viewBox="0 0 93 25" fill="none" xmlns="http://www.w3.org/2000/svg">
<path d="M6.61916 18.1511C7.11321 17.9323 7.47967 17.7527 7.71855 17.6124C7.95743 17.4778 8.12302 17.3431 8.21531 17.2084C8.31303 17.0794 8.3619 16.9222 8.3619 16.7371H7.71855C7.40366 16.7371 7.11321 16.6641 6.84718 16.5182C6.58658 16.3667 6.38028 16.1619 6.22827 15.9038C6.07625 15.6457 6.00024 15.3567 6.00024 15.0368C6.00024 14.717 6.07625 14.4224 6.22827 14.153C6.38571 13.8781 6.59473 13.662 6.85532 13.5049C7.12135 13.3422 7.40909 13.2608 7.71855 13.2608C8.02258 13.2608 8.29946 13.3422 8.5492 13.5049C8.80437 13.662 9.00253 13.8781 9.14368 14.153C9.29027 14.4224 9.36356 14.717 9.36356 15.0368V16.3078C9.36356 16.8016 9.28484 17.2 9.1274 17.503C8.96995 17.8117 8.72564 18.0754 8.39447 18.2942C8.0633 18.5187 7.57468 18.774 6.92862 19.0602L6.61916 18.1511ZM7.71855 15.7102H8.3619V15.0368C8.3619 14.846 8.29946 14.6861 8.17459 14.557C8.04972 14.4224 7.89771 14.355 7.71855 14.355C7.53396 14.355 7.37652 14.4196 7.24622 14.5486C7.12135 14.6777 7.05892 14.8404 7.05892 15.0368C7.05892 15.2276 7.12135 15.3875 7.24622 15.5166C7.37652 15.6457 7.53396 15.7102 7.71855 15.7102ZM9.30656 15.6429H9.73817C9.79246 15.6429 9.81961 15.6709 9.81961 15.727V16.6529C9.81961 16.709 9.79246 16.7371 9.73817 16.7371H9.30656V15.6429Z" fill="#FF6607"/>
<path d="M9.73626 16.7371C9.68197 16.7371 9.65482 16.709 9.65482 16.6529V15.727C9.65482 15.6709 9.68197 15.6429 9.73626 15.6429H10.5262C10.6565 15.6429 10.7678 15.5952 10.8601 15.4998C10.9524 15.3988 10.9985 15.2781 10.9985 15.1378V13.4797H12.0002V15.2052C12.0002 15.4857 11.935 15.7439 11.8047 15.9795C11.6744 16.2096 11.4953 16.3948 11.2673 16.5351C11.0447 16.6697 10.7976 16.7371 10.5262 16.7371H9.73626ZM9.69554 11.771H10.6321V12.739H9.69554V11.771ZM11.0555 11.771H11.992V12.739H11.0555V11.771Z" fill="#FF6607"/>
<path d="M2.50836 11.771C2.05669 11.771 1.63729 11.675 1.25015 11.4829C0.868381 11.2908 0.564582 11.0301 0.338749 10.7008C0.112916 10.3761 0 10.0216 0 9.63746V8.35456H0.992051V9.58944C0.992051 9.82269 1.05926 10.0377 1.19369 10.2343C1.33349 10.431 1.51899 10.5865 1.7502 10.7008C1.98679 10.8197 2.23951 10.8792 2.50836 10.8792C2.78796 10.8792 3.04337 10.8197 3.27458 10.7008C3.50579 10.5865 3.6886 10.431 3.82303 10.2343C3.96283 10.0377 4.03273 9.82269 4.03273 9.58944V8.08015H5.02478V9.63746C5.02478 10.0216 4.91186 10.3761 4.68603 10.7008C4.4602 11.0301 4.15371 11.2908 3.76657 11.4829C3.3848 11.675 2.9654 11.771 2.50836 11.771ZM2.0325 7.52445H2.96002V8.3134H2.0325V7.52445Z" fill="#FF6607"/>
<path d="M7.27265 10.5293C7.0038 10.5293 6.75646 10.4744 6.53063 10.3647C6.31017 10.2503 6.13542 10.0994 6.00637 9.91188C5.87732 9.71978 5.8128 9.5094 5.8128 9.28072V5.9397H6.80485V9.22583C6.80485 9.34017 6.85056 9.43851 6.94196 9.52083C7.03337 9.59858 7.14629 9.63746 7.28071 9.63746H7.69205C7.74582 9.63746 7.77271 9.66033 7.77271 9.70606V10.4607C7.77271 10.5064 7.74582 10.5293 7.69205 10.5293H7.27265Z" fill="#FF6607"/>
<path d="M10.2981 10.543C9.99159 10.543 9.71199 10.479 9.45927 10.3509C9.21193 10.2183 9.01836 10.0422 8.87856 9.82269C8.73876 9.60316 8.66885 9.36076 8.66885 9.09549V8.55351H8.17686V7.70968H10.2981C10.6046 7.70968 10.8869 7.77143 11.145 7.89491C11.4084 8.01383 11.6154 8.18077 11.766 8.39572C11.9219 8.60611 11.9999 8.83936 11.9999 9.09549C11.9999 9.35618 11.9219 9.59858 11.766 9.82269C11.6154 10.0422 11.4084 10.2183 11.145 10.3509C10.8869 10.479 10.6046 10.543 10.2981 10.543ZM7.69293 10.5293C7.63916 10.5293 7.61228 10.5064 7.61228 10.4607V9.70606C7.61228 9.66033 7.63916 9.63746 7.69293 9.63746H8.19299C8.32742 9.63746 8.44033 9.59858 8.53174 9.52083C8.62315 9.44308 8.66885 9.34704 8.66885 9.2327V8.69758H9.46734V9.28072C9.46734 9.63746 9.35442 9.93474 9.12859 10.1726C8.90275 10.4104 8.59089 10.5293 8.19299 10.5293H7.69293ZM10.2981 9.65118C10.4863 9.65118 10.6422 9.59858 10.7659 9.49339C10.8895 9.38362 10.9514 9.25099 10.9514 9.09549C10.9514 8.93998 10.8895 8.81192 10.7659 8.7113C10.6422 8.60611 10.4863 8.55351 10.2981 8.55351H9.65284V9.09549C9.65284 9.25556 9.71468 9.3882 9.83835 9.49339C9.96202 9.59858 10.1153 9.65118 10.2981 9.65118Z" fill="#FF6607"/>
<path d="M18.718 3.652C18.718 3.652 18.742 3.754 18.79 3.958C18.838 4.162 18.892 4.42 18.952 4.732C19.012 5.044 19.072 5.392 19.132 5.776C19.192 6.16 19.234 6.538 19.258 6.91C19.282 7.186 19.408 7.408 19.636 7.576C19.864 7.744 20.116 7.828 20.392 7.828H22.912V3.724H24.478V7.774C24.478 8.302 24.31 8.734 23.974 9.07C23.638 9.406 23.206 9.574 22.678 9.574H20.662C20.41 9.574 20.17 9.532 19.942 9.448C19.714 9.364 19.51 9.208 19.33 8.98V16.018H17.854V8.44C17.854 7.876 17.824 7.324 17.764 6.784C17.704 6.232 17.62 5.686 17.512 5.146L17.26 3.94L18.718 3.652ZM26.9301 13.876H28.6581V16H26.9301V13.876ZM32.7278 3.652C32.7278 3.652 32.7518 3.754 32.7998 3.958C32.8478 4.162 32.9018 4.42 32.9618 4.732C33.0218 5.044 33.0818 5.392 33.1418 5.776C33.2018 6.16 33.2438 6.538 33.2678 6.91C33.2918 7.186 33.4178 7.408 33.6458 7.576C33.8738 7.744 34.1258 7.828 34.4018 7.828H36.9218V3.724H38.4878V7.774C38.4878 8.302 38.3198 8.734 37.9838 9.07C37.6478 9.406 37.2158 9.574 36.6878 9.574H34.6718C34.4198 9.574 34.1798 9.532 33.9518 9.448C33.7238 9.364 33.5198 9.208 33.3398 8.98V16.018H31.8638V8.44C31.8638 7.876 31.8338 7.324 31.7738 6.784C31.7138 6.232 31.6298 5.686 31.5218 5.146L31.2698 3.94L32.7278 3.652ZM44.1978 2.572L45.0078 3.724L42.8298 5.56C42.7338 5.644 42.6558 5.746 42.5958 5.866C42.5358 5.974 42.4998 6.088 42.4878 6.208C42.4878 6.328 42.5058 6.448 42.5418 6.568C42.5898 6.676 42.6678 6.772 42.7758 6.856L45.3498 8.782C45.6618 8.362 45.9858 7.954 46.3218 7.558C46.6698 7.162 47.0358 6.778 47.4198 6.406L48.4098 5.452L49.5078 6.55L48.6078 7.396C48.3918 7.6 48.1938 7.798 48.0138 7.99C47.8338 8.17 47.6598 8.362 47.4918 8.566C47.3238 8.758 47.1558 8.962 46.9878 9.178C46.8318 9.394 46.6578 9.64 46.4658 9.916L42.1458 16.144L40.8498 15.226L44.6478 9.844C44.5158 9.844 44.3478 9.808 44.1438 9.736C43.9518 9.652 43.8018 9.568 43.6938 9.484L41.9838 8.152C41.6598 7.9 41.4258 7.606 41.2818 7.27C41.1378 6.922 41.0718 6.568 41.0838 6.208C41.0958 5.848 41.1858 5.5 41.3538 5.164C41.5218 4.816 41.7558 4.522 42.0558 4.282L44.1978 2.572ZM61.9585 7.756C61.9585 8.284 61.7905 8.716 61.4545 9.052C61.1185 9.388 60.6865 9.556 60.1585 9.556H58.9525C58.5565 9.556 58.1905 9.472 57.8545 9.304C57.5305 9.136 57.2485 8.878 57.0085 8.53C56.7445 8.878 56.4505 9.136 56.1265 9.304C55.8145 9.472 55.4485 9.556 55.0285 9.556C54.7885 9.556 54.5425 9.52 54.2905 9.448C54.0505 9.364 53.8405 9.202 53.6605 8.962V16.018H52.1665V8.422C52.1665 7.282 52.0525 6.184 51.8245 5.128L51.5725 3.922L53.0305 3.634C53.0305 3.658 53.0545 3.766 53.1025 3.958C53.1505 4.15 53.1985 4.396 53.2465 4.696C53.3065 4.996 53.3665 5.338 53.4265 5.722C53.4985 6.094 53.5525 6.478 53.5885 6.874C53.6005 7.09 53.7025 7.3 53.8945 7.504C54.0985 7.708 54.3745 7.81 54.7225 7.81H54.9745C55.2865 7.81 55.5565 7.714 55.7845 7.522C56.0125 7.318 56.1565 7.072 56.2165 6.784L56.8285 3.778L58.2865 4.066L57.7825 6.586C57.7465 6.898 57.8305 7.18 58.0345 7.432C58.2385 7.684 58.5145 7.81 58.8625 7.81H60.4645V3.688H61.9585V7.756ZM64.3012 13.876H66.0292V16H64.3012V13.876ZM72.0069 8.836C72.3789 8.836 72.7269 8.908 73.0509 9.052C73.3749 9.184 73.6569 9.37 73.8969 9.61C74.1489 9.85 74.3409 10.132 74.4729 10.456C74.6169 10.78 74.6889 11.128 74.6889 11.5V12.418C74.6889 12.778 74.6169 13.12 74.4729 13.444C74.3409 13.768 74.1489 14.056 73.8969 14.308C73.6569 14.548 73.3749 14.74 73.0509 14.884C72.7269 15.016 72.3789 15.082 72.0069 15.082H71.1249C70.7649 15.082 70.4229 15.016 70.0989 14.884C69.7749 14.74 69.4869 14.548 69.2349 14.308C68.9949 14.056 68.8029 13.768 68.6589 13.444C68.5269 13.12 68.4609 12.778 68.4609 12.418V11.5C68.4609 11.128 68.5269 10.78 68.6589 10.456C68.8029 10.132 68.9949 9.85 69.2349 9.61C69.4749 9.37 69.7569 9.184 70.0809 9.052C70.4049 8.908 70.7529 8.836 71.1249 8.836H72.0069ZM73.1049 12.346V11.482C73.1049 11.206 73.0089 10.978 72.8169 10.798C72.6249 10.606 72.3849 10.51 72.0969 10.51H71.0529C70.7769 10.51 70.5429 10.606 70.3509 10.798C70.1589 10.978 70.0629 11.206 70.0629 11.482V12.346C70.0629 12.622 70.1589 12.856 70.3509 13.048C70.5429 13.228 70.7769 13.318 71.0529 13.318H72.0969C72.3849 13.318 72.6249 13.228 72.8169 13.048C73.0089 12.856 73.1049 12.622 73.1049 12.346ZM80.3916 8.836C80.7636 8.836 81.1116 8.908 81.4356 9.052C81.7596 9.184 82.0416 9.37 82.2816 9.61C82.5336 9.85 82.7256 10.132 82.8576 10.456C83.0016 10.78 83.0736 11.128 83.0736 11.5V12.418C83.0736 12.778 83.0016 13.12 82.8576 13.444C82.7256 13.768 82.5336 14.056 82.2816 14.308C82.0416 14.548 81.7596 14.74 81.4356 14.884C81.1116 15.016 80.7636 15.082 80.3916 15.082H79.5096C79.1496 15.082 78.8076 15.016 78.4836 14.884C78.1596 14.74 77.8716 14.548 77.6196 14.308C77.3796 14.056 77.1876 13.768 77.0436 13.444C76.9116 13.12 76.8456 12.778 76.8456 12.418V11.5C76.8456 11.128 76.9116 10.78 77.0436 10.456C77.1876 10.132 77.3796 9.85 77.6196 9.61C77.8596 9.37 78.1416 9.184 78.4656 9.052C78.7896 8.908 79.1376 8.836 79.5096 8.836H80.3916ZM81.4896 12.346V11.482C81.4896 11.206 81.3936 10.978 81.2016 10.798C81.0096 10.606 80.7696 10.51 80.4816 10.51H79.4376C79.1616 10.51 78.9276 10.606 78.7356 10.798C78.5436 10.978 78.4476 11.206 78.4476 11.482V12.346C78.4476 12.622 78.5436 12.856 78.7356 13.048C78.9276 13.228 79.1616 13.318 79.4376 13.318H80.4816C80.7696 13.318 81.0096 13.228 81.2016 13.048C81.3936 12.856 81.4896 12.622 81.4896 12.346ZM88.7764 8.836C89.1484 8.836 89.4964 8.908 89.8204 9.052C90.1444 9.184 90.4264 9.37 90.6664 9.61C90.9184 9.85 91.1104 10.132 91.2424 10.456C91.3864 10.78 91.4584 11.128 91.4584 11.5V12.418C91.4584 12.778 91.3864 13.12 91.2424 13.444C91.1104 13.768 90.9184 14.056 90.6664 14.308C90.4264 14.548 90.1444 14.74 89.8204 14.884C89.4964 15.016 89.1484 15.082 88.7764 15.082H87.8944C87.5344 15.082 87.1924 15.016 86.8684 14.884C86.5444 14.74 86.2564 14.548 86.0044 14.308C85.7644 14.056 85.5724 13.768 85.4284 13.444C85.2964 13.12 85.2304 12.778 85.2304 12.418V11.5C85.2304 11.128 85.2964 10.78 85.4284 10.456C85.5724 10.132 85.7644 9.85 86.0044 9.61C86.2444 9.37 86.5264 9.184 86.8504 9.052C87.1744 8.908 87.5224 8.836 87.8944 8.836H88.7764ZM89.8744 12.346V11.482C89.8744 11.206 89.7784 10.978 89.5864 10.798C89.3944 10.606 89.1544 10.51 88.8664 10.51H87.8224C87.5464 10.51 87.3124 10.606 87.1204 10.798C86.9284 10.978 86.8324 11.206 86.8324 11.482V12.346C86.8324 12.622 86.9284 12.856 87.1204 13.048C87.3124 13.228 87.5464 13.318 87.8224 13.318H88.8664C89.1544 13.318 89.3944 13.228 89.5864 13.048C89.7784 12.856 89.8744 12.622 89.8744 12.346Z" fill="#FF6607"/>
</svg>
