<svg width="68" height="71" viewBox="0 0 68 71" fill="none" xmlns="http://www.w3.org/2000/svg">
<path fill-rule="evenodd" clip-rule="evenodd" d="M45.1368 10.0494L0 29.4413L16.92 70.2451L61.0943 50.8532L44.9849 10.0494H45.1368Z" fill="#2A2941"/>
<path fill-rule="evenodd" clip-rule="evenodd" d="M49.0375 2.22205L3.90063 21.6139L20.8206 62.4177L65.1469 43.0258L49.0375 2.22205Z" fill="white"/>
<path fill-rule="evenodd" clip-rule="evenodd" d="M40.5269 42.4198C47.4165 39.7434 51.0132 43.0258 52.9889 47.2678L53.4955 48.4798L34.7518 56.2568L34.3972 55.4488C31.9656 49.6918 33.7386 45.0963 40.5269 42.4198Z" fill="#00ADB5"/>
<path fill-rule="evenodd" clip-rule="evenodd" d="M40.1723 41.5613C38.6526 42.0158 37.2848 42.7733 36.069 43.7833C34.8532 44.7933 33.8907 46.0053 33.1308 47.4192C32.5735 48.7827 32.3709 50.1967 32.4216 51.6612C32.4722 53.1257 32.8268 54.5397 33.4854 55.8022L33.84 56.6607L34.1946 57.4687L54.6607 48.9847L54.3061 48.1262C54.3061 48.1262 53.9515 47.2677 53.7995 46.9143C52.837 44.5913 51.1653 42.6723 48.9869 41.4603C47.6191 40.8543 46.0994 40.5008 44.529 40.5513C43.0599 40.5008 41.5401 40.9048 40.1723 41.5613ZM35.2078 54.9942C34.7012 53.9337 34.3973 52.7722 34.3466 51.6107C34.2959 50.4492 34.4986 49.2372 34.9038 48.1767C35.5117 47.0152 36.3729 46.0053 37.3861 45.1468C38.3993 44.2883 39.6151 43.6823 40.8816 43.3288C41.996 42.7733 43.2625 42.4703 44.4783 42.4198C45.7448 42.3693 47.0112 42.6218 48.1257 43.1268C49.8988 44.1873 51.3172 45.7528 52.0771 47.6717L52.2291 47.9747L35.2078 54.9942Z" fill="#2A2941"/>
<path fill-rule="evenodd" clip-rule="evenodd" d="M67.1735 43.7328L49.9495 0L1.87451 20.6544L20.0103 64.3367L67.1735 43.7328ZM48.1765 4.09048L63.0701 42.0158L21.6314 60.1452L5.9272 22.2704L48.1765 4.09048Z" fill="#2A2941"/>
<path fill-rule="evenodd" clip-rule="evenodd" d="M7.44701 32.8753L54.6608 12.5239L53.445 9.64539L6.2312 29.9968L7.44701 32.8753Z" fill="#2A2941"/>
<path fill-rule="evenodd" clip-rule="evenodd" d="M9.6765 27.0173L13.0706 25.6033L11.8548 22.7249L8.46069 24.1388L9.6765 27.0173Z" fill="#2A2941"/>
<path fill-rule="evenodd" clip-rule="evenodd" d="M15.6028 24.5428L18.9969 23.1288L17.7811 20.2504L14.387 21.6644L15.6028 24.5428Z" fill="#2A2941"/>
<path fill-rule="evenodd" clip-rule="evenodd" d="M21.3774 22.1694L24.7716 20.7554L23.5557 17.877L20.1616 19.2909L21.3774 22.1694Z" fill="#2A2941"/>
<path d="M22.9991 40.2484C25.2787 40.2484 27.1024 38.4809 27.1024 36.2589C27.1024 34.0369 25.2787 32.2694 22.9991 32.2694C20.7195 32.2694 18.8958 34.0369 18.8958 36.2589C18.8958 38.4809 20.7701 40.2484 22.9991 40.2484Z" fill="#FF9518"/>
<path fill-rule="evenodd" clip-rule="evenodd" d="M22.9987 31.3099C22.0362 31.3099 21.0737 31.6129 20.2632 32.1684C19.4526 32.7239 18.8447 33.4814 18.4901 34.3904C18.1355 35.2994 18.0342 36.2589 18.2368 37.2184C18.4395 38.1779 18.8954 39.0364 19.6046 39.7434C20.3138 40.3999 21.175 40.9049 22.1375 41.0564C23.1 41.2079 24.0626 41.1574 24.9744 40.7534C25.8863 40.3999 26.6462 39.7434 27.2034 38.9354C27.7606 38.1274 28.0139 37.1679 28.0139 36.2084C28.0139 35.5519 27.862 34.8954 27.6087 34.2894C27.3554 33.6834 27.0008 33.1279 26.4942 32.6734C26.0382 32.2189 25.481 31.8654 24.8731 31.6129C24.3159 31.4614 23.6573 31.3099 22.9987 31.3099ZM22.9987 33.2289C23.6066 33.2289 24.1639 33.4309 24.6705 33.7844C25.1771 34.1379 25.5317 34.5924 25.7343 35.1479C25.9369 35.7034 25.9876 36.3094 25.8863 36.9154C25.7343 37.5214 25.481 38.0264 25.0251 38.4304C24.5691 38.8344 24.0626 39.1374 23.4547 39.2384C22.8468 39.3394 22.2389 39.2889 21.7323 39.0364C21.175 38.7839 20.7191 38.4304 20.3645 37.9254C20.0099 37.4204 19.8579 36.8649 19.8579 36.2589C19.8579 35.4509 20.2125 34.6429 20.8204 34.0874C21.4283 33.5319 22.1882 33.2289 22.9987 33.2289Z" fill="#2A2941"/>
<path d="M45.1374 29.2393C47.2144 29.2393 48.8861 27.5223 48.8861 25.4013C48.8861 23.2803 47.2144 21.5634 45.1374 21.5634C43.0604 21.5634 41.3887 23.2803 41.3887 25.4013C41.3887 27.5223 43.0604 29.2393 45.1374 29.2393Z" fill="#FF9518"/>
<path fill-rule="evenodd" clip-rule="evenodd" d="M45.1368 20.6544C44.1743 20.6544 43.2624 20.9069 42.4519 21.4119C41.6413 21.9169 41.0334 22.6744 40.6282 23.5329C40.2229 24.3914 40.1216 25.3509 40.3242 26.3104C40.4762 27.2194 40.9321 28.1284 41.5907 28.7849C42.2492 29.4414 43.1104 29.9464 44.0223 30.0979C44.9341 30.2999 45.9473 30.1989 46.8085 29.8454C47.6697 29.4919 48.4296 28.8859 48.9868 28.0779C49.4934 27.2699 49.7974 26.3609 49.7974 25.4014C49.7974 24.7954 49.6961 24.1389 49.4428 23.5834C49.1895 23.0279 48.8855 22.4724 48.4296 22.0179C47.9737 21.5634 47.4671 21.2099 46.9098 20.9574C46.3526 20.7554 45.7447 20.6544 45.1368 20.6544ZM45.1368 22.5229C45.694 22.5229 46.3019 22.6744 46.8085 22.9774C47.3151 23.2804 47.6697 23.7349 47.923 24.2399C48.1763 24.7449 48.227 25.3509 48.1256 25.9064C48.0243 26.4619 47.771 27.0174 47.3658 27.4214C46.9605 27.8254 46.4539 28.1284 45.8967 28.2294C45.3394 28.3304 44.7315 28.2799 44.1743 28.0779C43.617 27.8759 43.1611 27.4719 42.8571 27.0174C42.5532 26.5124 42.3506 25.9569 42.3506 25.4014C42.3506 24.6439 42.6039 23.9369 43.1611 23.3814C43.6677 22.8259 44.3769 22.5229 45.1368 22.5229Z" fill="#2A2941"/>
<path d="M35.6131 43.0763C40.9829 43.0763 45.2888 38.6828 45.2888 33.2794C45.2888 27.8759 40.9322 23.4824 35.6131 23.4824C30.2939 23.4824 25.9373 27.8759 25.9373 33.2794C25.9373 38.6828 30.2939 43.0763 35.6131 43.0763Z" fill="#FF9518"/>
<path fill-rule="evenodd" clip-rule="evenodd" d="M35.6127 22.5228C33.4851 22.4723 31.4081 23.0783 29.5843 24.2903C27.8113 25.4518 26.3929 27.1183 25.5823 29.0878C24.7718 31.0573 24.5185 33.2288 24.9238 35.2992C25.329 37.3697 26.3422 39.2887 27.862 40.8037C29.3817 42.3187 31.2561 43.3287 33.3837 43.7832C35.4607 44.1872 37.6391 43.9852 39.6148 43.1772C41.5904 42.3692 43.2622 41.0057 44.478 39.2382C45.6431 37.4707 46.3017 35.4002 46.3017 33.2793C46.3017 31.8653 46.0484 30.5018 45.4912 29.1888C44.9846 27.8758 44.174 26.7143 43.2115 25.7043C42.249 24.6943 41.0332 23.9368 39.7667 23.3813C38.3989 22.8258 37.0312 22.5733 35.6127 22.5228ZM35.6127 24.3913C37.3858 24.3913 39.0575 24.8963 40.5266 25.8558C41.9957 26.8153 43.1102 28.1788 43.7688 29.7948C44.4273 31.4108 44.63 33.1783 44.2753 34.8952C43.9207 36.6122 43.1102 38.1777 41.8437 39.3897C40.6279 40.6017 39.0575 41.4602 37.3351 41.8137C35.6127 42.1672 33.8397 41.9652 32.2186 41.3087C30.5975 40.6522 29.2297 39.4907 28.2672 38.0767C27.3047 36.6122 26.7981 34.9457 26.7981 33.1783C26.7981 30.8553 27.71 28.5828 29.3817 26.9668C31.0028 25.3508 33.2824 24.3913 35.6127 24.3913Z" fill="#2A2941"/>
<path fill-rule="evenodd" clip-rule="evenodd" d="M31.9656 34.0874C32.1176 34.5924 32.3202 35.0974 32.6748 35.5014C33.0294 35.9054 33.4347 36.2589 33.9413 36.4609C34.4478 36.7134 34.9544 36.8144 35.5117 36.8144C36.0689 36.8144 36.5755 36.7134 37.0821 36.4609C37.5887 36.2589 37.994 35.9054 38.3486 35.5014C38.7032 35.0974 38.9565 34.5924 39.0578 34.0874C39.2098 33.5824 39.2098 33.0269 39.1084 32.5219C39.0071 32.0169 38.8045 31.5119 38.5005 31.0574L35.2584 32.5724L31.9656 34.0874ZM39.0578 30.8049C39.2098 31.3099 39.4124 31.8149 39.767 32.2189C40.1216 32.6229 40.5269 32.9764 41.0335 33.1784C41.5401 33.4309 42.0466 33.5319 42.6039 33.5319C43.1611 33.5319 43.6677 33.4309 44.1743 33.1784C44.6809 32.9764 45.0862 32.6229 45.4408 32.2189C45.7954 31.8149 46.0487 31.3099 46.15 30.8049C46.302 30.2999 46.302 29.7444 46.2006 29.2394C46.0993 28.7344 45.8967 28.2294 45.5927 27.7749L42.3506 29.2899L39.0578 30.8049Z" fill="#2A2941"/>
<path fill-rule="evenodd" clip-rule="evenodd" d="M35.9676 31.9158L34.5999 36.8143H36.2209L38.0446 31.0068L35.9676 31.9158Z" fill="white"/>
<path fill-rule="evenodd" clip-rule="evenodd" d="M42.9585 28.7849L41.844 32.9763L43.6677 32.8248L45.0355 27.8759L42.9585 28.7849Z" fill="white"/>
<path fill-rule="evenodd" clip-rule="evenodd" d="M38.6022 30.6533L35.0561 32.2693L31.51 33.9358L31.662 34.2388C32.0673 35.2993 32.8778 36.1578 33.891 36.6123C34.9041 37.1172 36.0693 37.1677 37.1838 36.8143C37.0825 36.6628 36.9811 36.4608 36.8798 36.3093C36.4746 36.5113 36.0186 36.6123 35.5627 36.6123C35.1068 36.6123 34.6002 36.5113 34.1949 36.3093C33.739 36.1073 33.3844 35.8548 33.0804 35.5013C32.7765 35.1478 32.5232 34.7438 32.4219 34.2893L35.3601 32.9258L38.1969 31.6128C38.3996 31.4613 38.6022 31.3603 38.8555 31.2593C39.1088 31.1583 39.3114 31.0573 39.5647 31.0068L42.4016 29.6938L45.3398 28.3303C45.5931 28.7343 45.7451 29.1888 45.7957 29.6433C45.8464 30.0978 45.8464 30.5523 45.6944 31.0068C45.5424 31.4613 45.3398 31.8653 45.0359 32.2188C44.7319 32.5723 44.3773 32.8248 43.9214 33.0268C44.0227 33.2288 44.124 33.4308 44.1747 33.6328C45.1372 33.0268 45.8464 32.1178 46.1504 31.0068C46.4543 29.8958 46.3023 28.7343 45.7451 27.7748L45.5931 27.4718L42.047 29.0878L38.6022 30.6533Z" fill="#2A2941"/>
</svg>
