<svg width="48" height="51" viewBox="0 0 48 51" fill="none" xmlns="http://www.w3.org/2000/svg">
<path fill-rule="evenodd" clip-rule="evenodd" d="M0 15.371L21.143 6.45398L35.9369 41.4987L14.7626 50.5404L0 15.371Z" fill="#2A2941"/>
<path fill-rule="evenodd" clip-rule="evenodd" d="M2.75195 10.133L23.8637 1.21594L38.6575 36.2606L17.4833 45.3024L2.75195 10.133Z" fill="white"/>
<path fill-rule="evenodd" clip-rule="evenodd" d="M14.6375 39.8461L36.4373 30.5549L38.783 36.2918L17.2334 45.5206L14.6375 39.8461Z" fill="#FEC34E"/>
<path fill-rule="evenodd" clip-rule="evenodd" d="M36.7502 29.7754L13.8557 39.5343L16.9208 46.3312L39.5338 36.5723L36.7502 29.7754ZM15.4508 40.1578L36.1247 31.3343L38.0326 35.9799L17.5464 44.7411L15.4508 40.1578Z" fill="#2A2941"/>
<path fill-rule="evenodd" clip-rule="evenodd" d="M24.3957 0L1.46997 9.66535L16.9519 46.6743L39.909 36.9154L24.3332 0.0623573L24.3957 0ZM4.03466 10.6942L23.3636 2.52546L37.4068 35.8241L18.0153 44.0865L4.03466 10.6942Z" fill="#2A2941"/>
<path fill-rule="evenodd" clip-rule="evenodd" d="M24.9587 6.70336L30.7136 4.30261L36.3121 7.82579L31.777 15.5581L23.5825 12.5337L24.9587 6.70336Z" fill="#FF9518"/>
<path fill-rule="evenodd" clip-rule="evenodd" d="M30.8074 3.1803L24.1455 5.95519L22.4253 13.0951L32.2149 16.7118L37.6257 7.48294L30.8074 3.1803ZM25.8032 7.35822L30.6198 5.33162L34.9672 8.10651L31.3391 14.311L24.7398 11.8791L25.8032 7.35822Z" fill="#2A2941"/>
<path fill-rule="evenodd" clip-rule="evenodd" d="M34.5607 20.3285L40.1593 17.8654L46.0705 21.1391L42.2235 29.2455L33.1846 26.5642L34.5607 20.3285Z" fill="#FF9518"/>
<path fill-rule="evenodd" clip-rule="evenodd" d="M40.2218 16.7741L33.685 19.6426L32.0273 27.2813L42.7552 30.4303L47.3529 20.6715L40.2218 16.7118V16.7741ZM35.4052 21.0456L40.128 18.9566L44.8195 21.5756L41.7231 28.092L34.3418 25.9095L35.4052 21.0456Z" fill="#2A2941"/>
<path fill-rule="evenodd" clip-rule="evenodd" d="M17.7652 20.8584L22.1752 18.8318L26.2412 21.6067L23.5514 27.3435L17.0771 25.5975L17.7652 20.8584Z" fill="#A694FE"/>
<path fill-rule="evenodd" clip-rule="evenodd" d="M22.2687 17.7095L16.9204 20.1726L16.0447 26.3148L24.1453 28.4972L27.5545 21.2638L22.2687 17.7095ZM18.6719 21.5133L22.0811 19.9543L25.0211 21.9809L23.0194 26.1589L18.1715 24.8494L18.6719 21.5133Z" fill="#2A2941"/>
<path fill-rule="evenodd" clip-rule="evenodd" d="M13.2299 9.66522L16.3263 8.3869L15.8571 7.29565L12.7607 8.57397L13.2299 9.66522Z" fill="#2A2941"/>
<path d="M26.8043 38.9732C27.5237 38.9732 28.0867 38.412 28.0867 37.726C28.0867 37.0401 27.5237 36.4789 26.8043 36.4789C26.085 36.4789 25.522 37.0401 25.522 37.726C25.522 38.412 26.085 38.9732 26.8043 38.9732Z" fill="#2A2941"/>
</svg>
